<?xml version="1.0" standalone="no"?>
<!DOCTYPE svg PUBLIC "-//W3C//DTD SVG 20010904//EN"
 "http://www.w3.org/TR/2001/REC-SVG-20010904/DTD/svg10.dtd">
<svg version="1.0" xmlns="http://www.w3.org/2000/svg"
 width="851.000000pt" height="851.000000pt" viewBox="0 0 851.000000 851.000000"
 preserveAspectRatio="xMidYMid meet">
<metadata>
Created by potrace 1.14, written by Peter Selinger 2001-2017
</metadata>
<g transform="translate(0.000000,851.000000) scale(0.100000,-0.100000)"
fill="#000000" stroke="none">
<path d="M30 4260 l0 -2720 4240 0 4240 0 0 2720 0 2720 -4240 0 -4240 0 0
-2720z m8390 2305 l0 -325 -4150 0 -4150 0 0 325 0 325 4150 0 4150 0 0 -325z
m0 -2665 l0 -2270 -4150 0 -4150 0 0 2270 0 2270 4150 0 4150 0 0 -2270z"/>
<path d="M415 6797 c-78 -37 -130 -107 -142 -192 -6 -48 13 -155 29 -155 4 0
8 -6 8 -13 0 -7 15 -27 33 -44 164 -159 427 -25 404 205 -9 90 -65 165 -147
200 -64 27 -125 27 -185 -1z m198 -64 c105 -73 115 -223 20 -310 -68 -62 -164
-67 -234 -12 -50 39 -71 81 -74 149 -5 90 41 164 125 199 43 19 117 7 163 -26z"/>
<path d="M1150 6801 c-114 -37 -180 -130 -176 -247 5 -130 99 -224 230 -230
251 -11 337 342 112 458 -43 22 -128 32 -166 19z m128 -56 c70 -30 110 -84
119 -161 15 -142 -126 -252 -255 -199 -126 53 -161 211 -69 311 54 58 135 77
205 49z"/>
<path d="M1815 6786 c-116 -55 -164 -167 -131 -303 11 -43 69 -109 120 -135
47 -24 129 -31 181 -15 48 14 111 70 138 121 30 57 30 165 0 221 -62 116 -196
165 -308 111z m170 -43 c64 -33 115 -108 115 -170 0 -109 -89 -203 -192 -203
-36 0 -109 34 -136 63 -26 28 -52 98 -52 141 0 51 40 117 91 152 53 35 124 42
174 17z"/>
<path d="M6479 5650 c-1 -3 -3 -760 -3 -1682 l-2 -1678 143 0 143 0 0 33 c1
17 1 427 1 910 l1 877 106 1 c59 0 139 2 177 4 39 1 131 4 205 5 l135 2 3
-916 2 -916 143 0 143 0 -1 963 c-1 699 -4 973 -13 1002 -26 89 -113 139 -237
138 -48 0 -212 -12 -246 -18 -13 -2 -46 -6 -74 -10 -27 -3 -84 -10 -125 -15
-41 -5 -102 -12 -135 -16 -33 -3 -64 -7 -70 -8 -7 0 -11 225 -12 657 -1 363
-4 661 -7 664 -7 7 -275 10 -277 3z"/>
<path d="M836 4658 c-54 -54 -97 -101 -95 -103 2 -2 222 -223 488 -490 l484
-487 -489 -489 -489 -489 102 -101 101 -102 590 590 591 591 -590 588 c-324
324 -590 590 -592 590 -1 1 -46 -43 -101 -98z"/>
<path d="M5050 4374 c-84 -29 -110 -48 -137 -103 l-28 -56 0 -250 1 -250 26
-50 c33 -64 34 -65 403 -365 171 -139 332 -271 359 -294 26 -22 52 -42 57 -44
5 -2 9 -98 9 -213 l-1 -209 -289 0 -290 0 0 235 0 234 -140 0 -140 0 -1 -37
c0 -20 0 -137 0 -260 0 -246 9 -304 57 -356 56 -60 63 -61 482 -64 434 -4 472
0 531 54 62 55 69 92 70 374 2 275 -6 325 -63 392 -17 20 -110 100 -206 178
-239 193 -339 274 -429 348 -42 35 -95 78 -118 95 l-42 32 -1 183 0 182 75 1
c41 0 95 0 120 0 25 0 122 0 215 0 l170 -1 0 -132 c-1 -73 -1 -166 -1 -205 l1
-73 138 0 139 0 -2 248 c-2 242 -2 248 -26 297 -19 36 -39 58 -74 80 l-48 30
-401 2 c-221 1 -408 0 -416 -3z"/>
<path d="M4129 2643 c-1 -27 0 -269 1 -325 l0 -28 163 0 162 0 0 188 0 187
-162 3 -163 2 -1 -27z"/>
<path d="M1950 2215 l0 -135 730 0 730 0 0 135 0 135 -730 0 -730 0 0 -135z"/>
</g>
</svg>
