<?xml version="1.0" standalone="no"?>
<!DOCTYPE svg PUBLIC "-//W3C//DTD SVG 20010904//EN"
 "http://www.w3.org/TR/2001/REC-SVG-20010904/DTD/svg10.dtd">
<svg version="1.0" xmlns="http://www.w3.org/2000/svg"
 width="700.000000pt" height="700.000000pt" viewBox="0 0 700.000000 700.000000"
 preserveAspectRatio="xMidYMid meet">
<metadata>
Created by potrace 1.14, written by Peter Selinger 2001-2017
</metadata>
<g transform="translate(0.000000,700.000000) scale(0.100000,-0.100000)"
fill="#000000" stroke="none">
<path d="M3278 6995 c-1 -1 -42 -5 -89 -9 -47 -4 -95 -8 -105 -10 -10 -2 -41
-7 -69 -10 -335 -44 -715 -158 -1030 -312 -180 -87 -448 -247 -555 -331 -8 -6
-51 -40 -95 -74 -353 -275 -673 -651 -897 -1054 -49 -87 -148 -289 -148 -301
0 -2 -9 -23 -20 -47 -57 -123 -157 -435 -186 -582 -2 -11 -10 -54 -19 -95 -29
-147 -36 -200 -52 -370 -15 -165 -8 -592 12 -711 2 -13 6 -46 9 -74 9 -78 22
-152 51 -285 21 -96 91 -339 114 -395 5 -11 25 -65 46 -120 63 -166 249 -531
312 -610 4 -6 34 -49 65 -95 170 -255 433 -535 708 -755 92 -74 370 -265 386
-265 4 0 15 -6 23 -14 26 -22 298 -158 411 -205 267 -111 589 -200 859 -237
25 -3 57 -8 71 -10 163 -25 682 -25 842 1 13 2 46 7 73 10 72 10 86 12 120 19
17 3 44 8 60 11 194 37 411 101 622 184 130 52 418 192 473 231 15 11 33 20
39 20 6 0 11 5 11 10 0 6 5 10 10 10 15 0 220 141 330 227 152 118 324 280
450 422 36 41 70 79 76 85 6 6 48 61 94 121 150 197 277 405 383 628 26 53 47
99 47 102 0 2 11 28 24 57 57 127 151 421 182 573 17 81 54 301 59 350 4 33 9
71 11 85 9 46 11 524 4 605 -15 153 -21 210 -25 225 -2 8 -7 35 -10 60 -17
129 -80 384 -136 552 -348 1036 -1168 1857 -2204 2206 -168 57 -420 119 -555
137 -19 3 -46 7 -60 10 -13 2 -52 7 -86 11 -33 3 -74 8 -90 10 -32 5 -540 14
-546 9z m52 -979 c-108 -54 -196 -101 -289 -157 -334 -197 -636 -473 -779
-712 -45 -76 -95 -206 -111 -288 -15 -82 -6 -243 17 -315 38 -114 107 -241
171 -314 82 -93 174 -181 240 -230 18 -14 45 -35 59 -46 46 -36 226 -152 303
-194 91 -50 333 -169 414 -204 66 -28 64 -33 -5 -12 -50 16 -331 114 -400 141
-119 45 -227 88 -245 96 -11 4 -83 36 -160 70 -604 264 -976 563 -1050 845
-31 119 -15 251 46 365 58 108 138 193 332 354 16 14 157 107 182 121 251 139
344 184 560 272 226 92 766 269 825 271 8 0 -41 -28 -110 -63z m400 -2595
c394 -133 652 -236 925 -371 457 -227 737 -463 825 -698 27 -71 36 -190 21
-262 -86 -402 -755 -815 -1804 -1115 -87 -25 -164 -45 -170 -44 -7 0 -5 3 3 6
51 19 315 157 420 221 221 133 385 259 540 412 400 399 462 794 182 1166 -181
239 -553 494 -1007 689 -171 74 -164 73 65 -4z"/>
</g>
</svg>
